PathFileType  4	(X/Y/Z) C:\Users\antoi\Documents\MyRepositories\mobilecap\ResultsAnalysis
DataRate	CameraRate	NumFrames	NumMarkers	Units	OrigDataRate	OrigDataStartFrame	OrigNumFrames
100.0	100.0	6	51	mm	100.0	287	2288
Frame#	Time	r_knee			r_shank_antsup			r_ankle			r_calc			r_5meta			r_toe			L_knee			L_shank_antsup			L_ankle			L_calc			L_5meta			L_toe			r_sh2			r_sh3			r_sh4			L_sh2			L_sh3			r_thigh1			r_thigh2			r_thigh3			r_thigh4			r_thigh5			L_thigh1			L_thigh2			L_thigh3			L_thigh4			r.ASIS			r.PSIS			L.ASIS			L.PSIS			C7			R_Shoulder			L_Shoulder			R_Sternum			L_Sternum			R_humerus			R_elbow_med			R_elbow_lat			R_forearm			R_wrist_radius			R_wrist_ulna			L_humerus			L_elbow_med			L_elbow_lat			L_forearm			L_wrist_radius			L_wrist_ulna			R_HJC			L_HJC			R_HJC_reg			L_HJC_reg			
		X1	Y1	Z1	X2	Y2	Z2	X3	Y3	Z3	X4	Y4	Z4	X5	Y5	Z5	X6	Y6	Z6	X7	Y7	Z7	X8	Y8	Z8	X9	Y9	Z9	X10	Y10	Z10	X11	Y11	Z11	X12	Y12	Z12	X13	Y13	Z13	X14	Y14	Z14	X15	Y15	Z15	X16	Y16	Z16	X17	Y17	Z17	X18	Y18	Z18	X19	Y19	Z19	X20	Y20	Z20	X21	Y21	Z21	X22	Y22	Z22	X23	Y23	Z23	X24	Y24	Z24	X25	Y25	Z25	X26	Y26	Z26	X27	Y27	Z27	X28	Y28	Z28	X29	Y29	Z29	X30	Y30	Z30	X31	Y31	Z31	X32	Y32	Z32	X33	Y33	Z33	X34	Y34	Z34	X35	Y35	Z35	X36	Y36	Z36	X37	Y37	Z37	X38	Y38	Z38	X39	Y39	Z39	X40	Y40	Z40	X41	Y41	Z41	X42	Y42	Z42	X43	Y43	Z43	X44	Y44	Z44	X45	Y45	Z45	X46	Y46	Z46	X47	Y47	Z47	X48	Y48	Z48	X49	Y49	Z49	X50	Y50	Z50	X51	Y51	Z51	

287	2.86000000	-123.94528	450.30712	-431.13371	-94.51184	337.15989	-439.31775	-237.20258	92.71436	-442.07230	-289.69730	51.60257	-489.30022	-130.27993	41.38022	-403.36206	-93.36098	58.82525	-445.14977	-121.76200	449.61219	-802.33554	-86.87659	337.31640	-765.69459	-247.38480	91.77329	-798.31827	-297.87204	53.26295	-756.64408	-133.13757	37.13809	-819.40418	-94.31760	55.82731	-765.71896	-134.54604	230.80342	-447.51020	-150.42505	352.46130	-390.88548	-201.96433	253.32307	-405.88162	-135.71283	377.11370	-830.88526	-180.33603	264.40813	-844.84982	-242.17193	735.18395	-439.24494	-171.81963	655.81279	-433.61316	-192.59329	604.37780	-394.25090	-323.59095	664.77512	-405.79458	-243.50962	581.45972	-395.81991	-250.10261	712.05158	-804.23095	-153.76861	620.10463	-808.76640	-337.39315	642.85359	-824.60522	-233.56825	545.47477	-825.65519	-240.75837	790.04951	-493.75858	-387.06977	904.97161	-562.67794	-242.12382	783.01182	-738.09825	-391.07779	903.91817	-678.79816	-107.92993	1262.34706	-607.41060	-64.88472	1212.59266	-459.86167	-50.93774	1217.56959	-759.22032	-16.86580	1159.97291	-590.98524	-14.56654	1156.95970	-631.11543	-117.21412	1106.59894	-383.11811	-305.97741	989.97961	-407.35322	-259.59227	987.92894	-337.00650	-153.21034	943.50978	-381.95647	-69.64163	931.31815	-438.31320	-74.35581	894.62388	-430.19386	-99.56625	1090.91045	-843.70915	-266.99032	970.62994	-837.79171	-231.51731	969.25170	-909.64636	-140.06995	932.60215	-862.40050	-45.52729	918.09073	-776.96839	-54.27161	886.04443	-778.13040	-352.51383	763.30747	-517.53585	-351.54043	753.12471	-706.63700	-334.17759	756.28284	-524.43052	-339.74259	754.81987	-685.66144	
288	2.87000000	-123.64606	449.84575	-431.41317	-93.87760	336.74068	-439.76074	-237.15479	92.71303	-442.06050	-289.70251	51.58382	-489.23455	-130.28828	41.44170	-403.34507	-93.31834	58.88771	-445.19125	-121.80928	449.43885	-802.47808	-86.46826	337.02344	-765.55864	-247.31986	91.78544	-798.10235	-297.83818	53.30499	-756.51517	-133.12089	37.22918	-819.34379	-94.30681	55.89200	-765.71139	-134.14139	230.43033	-447.71452	-149.84765	352.28821	-391.10808	-202.12881	254.02365	-405.80388	-135.37817	376.97077	-831.10004	-180.17999	264.30418	-844.88902	-246.60573	732.49625	-439.52359	-174.99779	654.73476	-434.18000	-194.68973	602.74410	-394.61685	-326.66711	660.99052	-405.78603	-245.16638	578.92112	-396.06780	-254.42994	709.81099	-804.30968	-156.56305	619.46368	-808.42179	-340.51155	639.16843	-825.11035	-234.99460	543.59526	-825.96423	-244.78060	783.79359	-493.96397	-389.76569	900.34233	-562.69806	-246.28804	777.02619	-738.25352	-393.83239	899.46769	-678.79812	-104.36924	1252.54497	-607.57703	-61.72417	1202.11534	-459.73011	-47.65638	1206.76825	-759.20285	-14.50771	1148.73135	-590.71341	-12.47712	1145.61884	-630.92615	-115.54350	1096.67885	-383.05168	-306.29295	983.08329	-407.53287	-259.78776	980.01645	-337.47261	-154.05144	934.35127	-382.55089	-70.73726	921.12689	-438.95457	-75.97609	884.46273	-430.88399	-98.05614	1080.57599	-843.36702	-267.30338	962.82577	-837.86031	-231.59960	960.80820	-909.37209	-140.91345	922.71345	-861.74141	-47.00374	907.07847	-776.42467	-56.25358	875.07782	-777.09628	-356.79966	758.28707	-517.70682	-355.99341	748.29394	-706.81906	-338.53971	751.08370	-524.62559	-344.18570	749.86931	-685.81774	
289	2.88000000	-123.55680	449.53430	-431.63385	-93.49687	336.48308	-440.04304	-237.08036	92.65725	-442.06345	-289.65772	51.60617	-489.24767	-130.30264	41.52916	-403.32663	-93.30243	58.93679	-445.25121	-122.05775	449.23762	-802.59797	-86.26691	336.82204	-765.56378	-247.28025	91.78653	-797.93900	-297.81986	53.35603	-756.52087	-133.10602	37.28125	-819.31720	-94.30638	55.92723	-765.72225	-133.84184	230.17952	-447.89431	-149.43411	352.12874	-391.35338	-202.25537	254.55598	-405.69680	-135.25626	376.84987	-831.28149	-180.21575	264.18218	-844.97924	-251.01818	729.91408	-440.08319	-178.15623	653.54694	-434.68687	-196.74864	601.24215	-395.07689	-329.69982	657.37465	-405.83014	-246.89657	576.61084	-396.21907	-258.77942	707.45195	-804.25861	-159.44063	618.87753	-808.19620	-343.61658	635.65765	-825.66605	-236.51641	541.76386	-826.21693	-248.78399	777.70104	-494.12004	-392.52557	895.69598	-562.83738	-250.41661	770.98068	-738.14830	-396.51880	895.02506	-678.80544	-100.87979	1242.78408	-607.73064	-58.53519	1191.52927	-459.48989	-44.46335	1195.87849	-759.15439	-12.19519	1137.42439	-590.35444	-10.25108	1134.13635	-630.63005	-114.07190	1086.52013	-383.55615	-306.72977	976.24639	-407.83124	-260.13680	972.18240	-337.91447	-155.13201	925.18890	-383.07534	-71.97258	910.94437	-439.73399	-77.85979	874.10700	-432.18476	-96.67989	1070.21513	-842.95604	-267.80863	955.19770	-837.67327	-231.92311	952.38853	-909.02286	-141.94308	912.85837	-860.99573	-48.50740	896.01312	-775.51346	-58.40205	864.19530	-775.91048	-361.08677	753.37911	-517.77524	-360.36191	743.40843	-706.88906	-342.88695	745.83916	-524.84235	-348.43155	744.90767	-685.86732	
290	2.89000000	-123.64313	449.31828	-431.78304	-93.32967	336.32349	-440.20205	-237.02922	92.62519	-442.07332	-289.59985	51.66633	-489.31921	-130.30624	41.61301	-403.33462	-93.30393	58.96006	-445.30749	-122.51023	448.98607	-802.64044	-86.29081	336.69322	-765.86276	-247.28062	91.79505	-797.95480	-297.82277	53.36387	-756.53562	-133.09492	37.27850	-819.33326	-94.31201	55.95223	-765.73485	-133.75077	230.12106	-447.99605	-149.21889	351.98793	-391.66283	-201.84212	254.13077	-405.81704	-135.41397	376.75531	-831.45821	-180.36244	263.98748	-845.02606	-255.34571	727.49796	-440.73897	-181.37588	652.39456	-434.99303	-198.89555	599.91257	-395.53653	-332.83822	653.96336	-405.79960	-248.71526	574.51657	-396.36075	-263.09026	705.05307	-804.07256	-162.36512	618.39689	-808.18579	-346.73742	632.27663	-825.97289	-238.12776	540.07104	-826.63973	-252.69358	771.76120	-494.26088	-395.22684	891.08074	-562.89347	-254.44554	764.90644	-738.07160	-399.24199	890.55109	-678.83714	-97.46111	1232.95315	-607.68207	-55.44355	1180.81416	-459.39218	-41.37874	1184.85760	-758.92463	-10.02904	1126.17238	-590.13538	-8.13910	1122.83301	-630.63864	-112.85122	1076.28948	-384.45399	-307.24888	969.55655	-408.30581	-260.62670	964.40429	-338.30336	-156.35749	916.00572	-383.66664	-73.37105	900.87391	-440.50245	-79.98498	863.80127	-433.79450	-95.39905	1059.85078	-842.52037	-268.51127	947.73156	-837.37297	-232.43840	943.97826	-908.59420	-143.26002	903.03892	-859.97262	-50.17765	884.99545	-774.40439	-60.69267	853.37843	-774.63041	-365.23787	748.54303	-517.77519	-364.65420	738.49757	-706.88537	-347.06414	740.67777	-524.95748	-352.63547	739.94266	-685.84224	
291	2.90000000	-123.85773	449.05541	-431.98546	-93.28663	336.22680	-440.30320	-237.04091	92.68671	-442.06001	-289.57641	51.69851	-489.36921	-130.31153	41.69450	-403.34996	-93.31307	58.95675	-445.37602	-123.08735	448.75030	-802.69446	-86.45307	336.61415	-766.43348	-247.32734	91.78850	-798.11461	-297.84104	53.32619	-756.50603	-133.09662	37.23938	-819.37755	-94.32952	55.97966	-765.76563	-133.78608	230.07247	-447.96664	-149.22606	351.93229	-391.88178	-201.45164	253.45453	-406.06407	-135.75503	376.69462	-831.76971	-180.55335	263.72005	-844.98229	-259.61251	725.28811	-441.17816	-184.63423	651.43925	-435.41574	-201.23776	598.68746	-395.88687	-336.03684	650.71206	-405.70031	-250.61339	572.58573	-396.44530	-267.32457	702.73987	-803.95838	-165.36934	617.84718	-808.15254	-349.92278	628.85098	-825.96001	-239.81977	538.50000	-827.22302	-256.46852	765.99315	-494.45130	-397.81834	886.48976	-562.87819	-258.33182	758.97645	-738.34795	-401.96509	886.09480	-678.87195	-94.09672	1222.92634	-607.53886	-52.53716	1170.02268	-459.42922	-38.35423	1173.81510	-758.78741	-7.88439	1114.85753	-589.96269	-6.17784	1111.49297	-630.54814	-111.70200	1066.06607	-384.99231	-307.80072	962.91517	-408.77834	-261.24279	956.65711	-338.77107	-157.70607	906.79393	-384.50542	-74.95655	890.88890	-441.24467	-82.20748	853.84307	-435.13338	-94.24813	1049.45343	-842.09760	-269.45205	940.39550	-836.99425	-233.08617	935.61649	-908.14000	-144.90907	893.18755	-858.59488	-52.13803	874.09506	-773.24216	-63.10488	842.70908	-773.32675	-369.16024	743.73825	-517.86061	-368.82196	733.67947	-706.97068	-351.05435	735.56795	-525.08137	-356.80787	735.01994	-686.02056	
292	2.91000000	-124.22613	448.80526	-432.20524	-93.34664	336.20349	-440.25457	-237.06220	92.78163	-442.02899	-289.58680	51.66491	-489.33964	-130.33693	41.76059	-403.35425	-93.32723	58.94932	-445.44235	-123.74676	448.58018	-802.86841	-86.68164	336.59516	-767.13352	-247.40005	91.73076	-798.28295	-297.86641	53.28074	-756.53353	-133.12017	37.17657	-819.42499	-94.35009	55.95478	-765.80925	-133.83977	229.91915	-447.86680	-149.42496	351.96964	-391.87858	-201.55253	253.27865	-406.22181	-136.15171	376.62100	-832.12967	-180.85275	263.44267	-844.98043	-263.93487	723.14320	-441.48551	-187.91210	650.54887	-436.01639	-203.67875	597.51390	-396.11878	-339.16263	647.58725	-405.68714	-252.58787	570.76644	-396.40090	-271.50293	700.52688	-804.09674	-168.45846	617.15050	-807.99357	-353.17603	625.40121	-826.12633	-241.66571	536.90655	-827.69664	-260.16920	760.35119	-494.67678	-400.45236	881.94136	-563.04198	-262.09864	753.21570	-738.80384	-404.60821	881.69238	-678.87543	-90.89040	1212.78788	-607.41208	-49.72540	1159.21349	-459.35099	-35.38389	1162.78353	-758.90087	-5.83470	1103.46159	-589.82266	-4.50747	1099.93467	-630.33753	-110.54444	1055.72318	-385.09868	-308.51550	956.33823	-409.19638	-261.98685	948.97511	-339.35791	-159.18493	897.70311	-385.40415	-76.71261	880.89803	-442.12901	-84.47986	844.11625	-436.15571	-93.27230	1038.99952	-841.70196	-270.63968	933.25442	-836.40596	-233.94067	927.32358	-907.62661	-146.64786	883.46732	-857.24836	-54.32829	863.44987	-771.98239	-65.62377	832.26755	-772.00900	-372.98687	738.98201	-518.06746	-372.84811	728.96434	-707.18016	-355.03098	730.46956	-525.35949	-360.81039	730.12354	-686.45299	
